{
	"asset":{
		"generator":"Khronos glTF Blender I/O v4.3.47",
		"version":"2.0"
	},
	"scene":0,
	"scenes":[
		{
			"name":"Scene",
			"nodes":[
				0
			]
		}
	],
	"nodes":[
		{
			"mesh":0,
			"name":"Curve",
			"rotation":[
				0.7071068286895752,
				0,
				0,
				0.7071068286895752
			],
			"scale":[
				5,
				5,
				5
			],
			"translation":[
				0,
				0.2199999988079071,
				0
			]
		}
	],
	"materials":[
		{
			"doubleSided":true,
			"name":"SVGMat",
			"pbrMetallicRoughness":{
				"baseColorFactor":[
					0.8994461297988892,
					0.8813537359237671,
					1,
					1
				],
				"metallicFactor":0,
				"roughnessFactor":0.4000000059604645
			}
		}
	],
	"meshes":[
		{
			"name":"Curve",
			"primitives":[
				{
					"attributes":{
						"POSITION":0,
						"NORMAL":1,
						"TEXCOORD_0":2
					},
					"indices":3,
					"material":0
				}
			]
		}
	],
	"accessors":[
		{
			"bufferView":0,
			"componentType":5126,
			"count":8340,
			"max":[
				0.15175528824329376,
				0.05000000447034836,
				0.21735015511512756
			],
			"min":[
				-0.10436661541461945,
				-0.05000000447034836,
				-0.12971696257591248
			],
			"type":"VEC3"
		},
		{
			"bufferView":1,
			"componentType":5126,
			"count":8340,
			"type":"VEC3"
		},
		{
			"bufferView":2,
			"componentType":5126,
			"count":8340,
			"type":"VEC2"
		},
		{
			"bufferView":3,
			"componentType":5123,
			"count":24744,
			"type":"SCALAR"
		}
	],
	"bufferViews":[
		{
			"buffer":0,
			"byteLength":100080,
			"byteOffset":0,
			"target":34962
		},
		{
			"buffer":0,
			"byteLength":100080,
			"byteOffset":100080,
			"target":34962
		},
		{
			"buffer":0,
			"byteLength":66720,
			"byteOffset":200160,
			"target":34962
		},
		{
			"buffer":0,
			"byteLength":49488,
			"byteOffset":266880,
			"target":34963
		}
	],
	"buffers":[
		{
			"byteLength":316368,
			"uri":"jack.bin"
		}
	]
}
