<svg width="1147" height="1169" viewBox="0 0 1147 1169" fill="none" xmlns="http://www.w3.org/2000/svg">
<g clip-path="url(#clip0_3079_185)">
<path d="M435 91.6H448.2C450.6 94 453.4 95.2 456.6 95.2H473.4C474.2 96 475.4 96.4 477 96.4H485.4L695.4 138.4C696.2 140.8 697.8 142 700.2 142H707.4C709 143.6 710.6 144.4 712.2 144.4H718.2C724.6 144.4 741.8 142.4 769.8 138.4C775.4 136.8 783.8 134.8 795 132.4C798.2 130.8 802.2 129.2 807 127.6C812.6 125.2 816.6 123.6 819 122.8C821.4 122 824.6 120.8 828.6 119.2C832.6 117.6 835.4 116.8 837 116.8C843.4 112.8 849.4 110.4 855 109.6C856.6 108.8 858.2 108 859.8 107.2C861.4 106.4 862.6 106 863.4 106C865 106 868.2 104.8 873 102.4C878.6 99.1999 884.6 97.2 891 96.4L909 94V110.8C908.2 111.6 907.8 112.4 907.8 113.2V116.8C907 117.6 906.6 118.4 906.6 119.2V124C845.8 178.4 809.4 248.8 797.4 335.2V649.6C797.4 658.4 796.6 670 795 684.4C795 691.6 793.4 702.4 790.2 716.8C771.8 804 727.4 882.8 657 953.2C586.6 1023.6 507.8 1058.8 420.6 1058.8H408.6L264.6 1016.8C260.6 1016.8 255.4 1017.6 249 1019.2C245.8 1021.6 241.8 1024 237 1026.4L231 1032.4C226.2 1037.2 223 1040.8 221.4 1043.2C219.8 1045.6 218.6 1047.2 217.8 1048C216.2 1049.6 215.4 1050.8 215.4 1051.6C214.6 1052.4 213.8 1053.6 213 1055.2C211.4 1056.8 210.6 1058 210.6 1058.8C210.6 1059.6 210.2 1060.4 209.4 1061.2C208.6 1062.8 207.8 1064 207 1064.8C205.4 1066.4 204.6 1067.6 204.6 1068.4L202.2 1070.8V1073.2L199.8 1075.6L183 1070.8C192.6 1032.4 207.8 998.4 228.6 968.8C248.6 940 278.6 921.2 318.6 912.4C337.8 915.6 366.2 919.2 403.8 923.2C412.6 924.8 426.6 927.6 445.8 931.6C450.6 932.4 457.8 934 467.4 936.4C472.2 938 479 940 487.8 942.4C528.6 940 549 914.4 549 865.6V858.4C548.2 856 547.8 853.2 547.8 850V841.6C547 840.8 546.2 838.4 545.4 834.4C544.6 829.6 543.8 825.2 543 821.2C542.2 817.2 541.4 813.6 540.6 810.4C539.8 806.4 539 802.8 538.2 799.6C537.4 795.6 537 792.8 537 791.2C537 790.4 537 789.6 537 788.8C536.2 788 535.4 787.2 534.6 786.4C534.6 785.6 534.2 784.4 533.4 782.8C533.4 780.4 533 778 532.2 775.6C480.2 688.4 410.6 644.8 323.4 644.8C348.2 620 379 607.6 415.8 607.6C420.6 607.6 429 608.4 441 610C447.4 610 456.6 611.6 468.6 614.8C470.2 614.8 471.8 614.8 473.4 614.8C475 615.6 476.2 616.4 477 617.2C478.6 618 481 618.4 484.2 618.4C485.8 618.4 487.4 618.4 489 618.4C490.6 619.2 491.8 620 492.6 620.8C494.2 621.6 496.6 622 499.8 622V605.2C499.8 577.2 484.2 550.8 453 526C424.2 504.4 394.6 491.6 364.2 487.6C357.8 485.2 348.6 484 336.6 484C353.4 460.8 380.2 448 417 445.6C417.8 445.6 419 445.2 420.6 444.4H441C443.4 445.2 446.6 445.6 450.6 445.6H460.2C462.6 446.4 466.2 446.8 471 446.8C480.6 449.2 495 452.4 514.2 456.4C523 408.4 539.4 366 563.4 329.2C585 296.4 617.4 264.4 660.6 233.2C662.2 232.4 663.4 231.6 664.2 230.8C665.8 230 667 229.6 667.8 229.6C668.6 228.8 669.8 228 671.4 227.2C673 225.6 674.2 224.4 675 223.6C675.8 222.8 677.8 221.6 681 220C684.2 217.6 686.6 216 688.2 215.2C689.8 214.4 691 213.6 691.8 212.8C693.4 212 694.6 211.6 695.4 211.6C696.2 210.8 697.4 210 699 209.2C700.6 207.6 701.8 206.8 702.6 206.8C704.2 206 706.2 204.4 708.6 202C711 202 713.4 200.8 715.8 198.4L576.6 240.4L516.6 235.6L365.4 186.4H348.6C337.4 189.6 325.8 193.2 313.8 197.2C302.6 200.4 292.6 206.4 283.8 215.2V217.6C283 218.4 282.6 219.6 282.6 221.2V223.6C281.8 224.4 281.4 225.6 281.4 227.2V229.6C279.8 231.2 279 233.6 279 236.8V245.2C279 245.2 279.4 245.6 280.2 246.4V250C280.2 250 280.6 250.4 281.4 251.2V252.4C283.8 250.8 289.4 249.2 298.2 247.6C307 246 313 245.2 316.2 245.2H321C321.8 246 323.8 246.4 327 246.4H333C333.8 247.2 335.4 248 337.8 248.8C341 248.8 343.8 249.2 346.2 250C348.6 250.8 351 251.6 353.4 252.4L358.2 257.2C358.2 258.8 359 260.4 360.6 262C362.2 262.8 363.4 264 364.2 265.6C365 267.2 365.4 268.8 365.4 270.4C365.4 272 365.8 273.6 366.6 275.2C368.2 276.8 370.2 280.8 372.6 287.2C372.6 288.8 373 290.8 373.8 293.2V298C373.8 312.4 368.2 324.8 357 335.2C345.8 344.8 331.4 349.6 313.8 349.6H310.2C309.4 349.6 308.6 349.2 307.8 348.4C307 348.4 306.2 348.4 305.4 348.4C305.4 348.4 301.8 347.2 294.6 344.8H292.2C291.4 344.8 290.6 344.4 289.8 343.6H286.2C286.2 343.6 285.8 343.2 285 342.4H283.8C272.6 332.8 264.2 323.6 258.6 314.8C253.8 305.2 249.4 294 245.4 281.2C245.4 279.6 245.4 278.4 245.4 277.6C244.6 276 243.8 274.8 243 274C243 273.2 243 271.2 243 268C243 266.4 243 265.2 243 264.4C242.2 262.8 241.8 261.6 241.8 260.8V254.8C241.8 249.2 241.8 245.2 241.8 242.8C242.6 239.6 243 237.2 243 235.6C243.8 234 244.6 232.4 245.4 230.8C245.4 230 245.4 229.2 245.4 228.4C249.4 212.4 255.8 198 264.6 185.2C270.2 177.2 281 165.2 297 149.2C339.4 114.8 385.4 96.4 435 94V91.6ZM814.2 163.6C761.4 193.2 721.8 225.2 695.4 259.6C666.6 298 645.4 343.6 631.8 396.4L618.6 835.6C617.8 843.6 616.6 850.8 615 857.2L611.4 875.2C609.8 880 609 883.2 609 884.8C609 885.6 608.6 887.2 607.8 889.6C607 891.2 606.2 892.8 605.4 894.4C603.8 899.2 603 902 603 902.8C602.2 906 601 908.4 599.4 910C567.4 947.6 535.8 975.6 504.6 994C544.6 990 580.6 972.8 612.6 942.4C645.4 912 664.2 876.4 669 835.6L683.4 382C693.8 339.6 709.8 300.8 731.4 265.6C753 230.4 780.6 197.2 814.2 166V163.6Z" fill="white"/>
</g>
<defs>
<clipPath id="clip0_3079_185">
<rect width="1147" height="1169" fill="white"/>
</clipPath>
</defs>
</svg>
